<svg xmlns="http://www.w3.org/2000/svg" width="188.238" height="39" viewBox="0 0 188.238 39">
  <g id="ifx-logo-20-anos" transform="translate(-54.45 -327.874)">
    <g id="Grupo_5719" data-name="Grupo 5719" transform="translate(54.45 328.153)">
      <g id="Grupo_5668" data-name="Grupo 5668" transform="translate(1.857 3.937)">
        <g id="Grupo_5667" data-name="Grupo 5667">
          <g id="Grupo_5666" data-name="Grupo 5666">
            <g id="Grupo_5665" data-name="Grupo 5665">
              <g id="Grupo_5664" data-name="Grupo 5664">
                <circle id="Elipse_153" data-name="Elipse 153" cx="14.007" cy="14.007" r="14.007" transform="translate(0 0.246) rotate(-0.503)" fill="#dc931a"/>
              </g>
            </g>
          </g>
        </g>
      </g>
      <g id="Grupo_5711" data-name="Grupo 5711" transform="translate(19.874)">
        <g id="Grupo_5674" data-name="Grupo 5674">
          <g id="Grupo_5673" data-name="Grupo 5673">
            <g id="Grupo_5672" data-name="Grupo 5672">
              <g id="Grupo_5671" data-name="Grupo 5671">
                <g id="Grupo_5670" data-name="Grupo 5670">
                  <g id="Grupo_5669" data-name="Grupo 5669">
                    <path id="Trazado_12558" data-name="Trazado 12558" d="M112.745,345.042a26.465,26.465,0,0,1,.358-2.824.705.705,0,0,1,1.28-.182,65.155,65.155,0,0,1,3.874,6.641s-2.928,2.81-3.922,3.709-3.2,3.236-4.1,2.28c-.438-.462.423-2.3.423-2.3a2.479,2.479,0,0,0-2.83,1.722c-.67,2.135,1.322,3.181,2.93,2.352,2.482-1.285,8.04-6.933,8.017-6.908.966,1.367,3.748,7.831,6.008,7.054,1.881-.642,2.091-4.029,1.045-5.139-.3-.315-.414.022-.375.173a2.541,2.541,0,0,1,.049,1.5c-.192.578-.545,1.081-1.287.924-.7-.147-3.155-4.874-3.725-6.135,0,0,4.969-4.961,6.777-5.937,1.837-.992,1.987-.221,1.837.265a3.138,3.138,0,0,1-.822,1.382s1.648.914,2.484-1.5c.779-2.26-.531-3.213-1.613-2.691-2.622,1.24-9.185,7.781-9.236,7.757-1.146-1.825-3.823-7.59-5.857-7.927-1.628-.27-2.257,1.674-2.358,2.45S111.652,344.75,112.745,345.042Zm-12.392-4.021.441-1.33h3.8s2.64-8.094,5.191-10.122c1.851-1.472,4.373-1.505,5.459-.531,1.44,1.3.615,3.145-1.3,2.591-.76-.218-.458-1.494-1.354-1.9a1.89,1.89,0,0,0-.6-.2,1.5,1.5,0,0,0-.82.139c-1.657.718-3.419,6.278-4.516,10.049h3.44l-.461,1.3s-3.317.059-3.376,0c-.129.4-1.947,7.865-3.154,11.451-1.525,4.515-3.908,10.908-6.778,13.073-3,2.269-5.6.971-6.079.144a1.547,1.547,0,1,1,2.809-1.249c.975,2.059,2.626,1.11,4.036-1.853a65.989,65.989,0,0,0,3.487-9.556c.989-3.133,3.088-10.006,3.5-12.011Z" transform="translate(-90.085 -328.374)" fill="#fff" fill-rule="evenodd"/>
                  </g>
                </g>
              </g>
            </g>
          </g>
        </g>
        <g id="Grupo_5685" data-name="Grupo 5685" transform="translate(36.748 27.1)">
          <g id="Grupo_5679" data-name="Grupo 5679">
            <g id="Grupo_5678" data-name="Grupo 5678">
              <g id="Grupo_5677" data-name="Grupo 5677">
                <g id="Grupo_5676" data-name="Grupo 5676">
                  <g id="Grupo_5675" data-name="Grupo 5675">
                    <path id="Trazado_12559" data-name="Trazado 12559" d="M156.565,377.073a.041.041,0,0,0,.009-.022.42.42,0,0,0-.277-.085.283.283,0,0,0-.316.29.232.232,0,0,0,.125.224c.147.086.292.1.292.226a.117.117,0,0,1-.128.132.612.612,0,0,1-.237-.062.021.021,0,0,0-.016.015l-.034.094a.227.227,0,0,0,0,.023.467.467,0,0,0,.3.087.293.293,0,0,0,.311-.3.284.284,0,0,0-.125-.239c-.124-.093-.292-.113-.292-.22,0-.088.068-.113.134-.113a.46.46,0,0,1,.2.062.017.017,0,0,0,.016-.014Z" transform="translate(-155.978 -376.966)" fill="#fff"/>
                  </g>
                </g>
              </g>
            </g>
          </g>
          <g id="Grupo_5684" data-name="Grupo 5684" transform="translate(0.749 0.024)">
            <g id="Grupo_5683" data-name="Grupo 5683">
              <g id="Grupo_5682" data-name="Grupo 5682">
                <g id="Grupo_5681" data-name="Grupo 5681">
                  <g id="Grupo_5680" data-name="Grupo 5680">
                    <path id="Trazado_12560" data-name="Trazado 12560" d="M158.129,377.958c0,.027-.006.03-.03.03h-.126c-.023,0-.03,0-.03-.03l-.012-.484c0-.051,0-.178,0-.229h0c-.008.05-.035.172-.05.224l-.086.279c-.006.019-.006.023-.032.023h-.087c-.026,0-.026,0-.033-.023l-.083-.279c-.015-.051-.04-.173-.05-.224h0c0,.05,0,.177,0,.229l-.016.484c0,.027-.006.03-.028.03h-.106c-.023,0-.031,0-.029-.03l.04-.917c0-.027.007-.031.029-.031h.138c.024,0,.024,0,.032.022l.116.361a1.028,1.028,0,0,1,.042.172h0a.93.93,0,0,1,.046-.172l.122-.361c.007-.019.008-.022.034-.022h.138c.025,0,.026.007.029.045Z" transform="translate(-157.32 -377.009)" fill="#fff"/>
                  </g>
                </g>
              </g>
            </g>
          </g>
        </g>
        <g id="Grupo_5710" data-name="Grupo 5710" transform="translate(40.575 18.172)">
          <g id="Grupo_5688" data-name="Grupo 5688" transform="translate(0 0.514)">
            <g id="Grupo_5687" data-name="Grupo 5687">
              <g id="Grupo_5686" data-name="Grupo 5686">
                <path id="Trazado_12561" data-name="Trazado 12561" d="M162.839,371.5v-9.621h2.541l2,3.526a27.938,27.938,0,0,1,1.57,3.3h.043a35.693,35.693,0,0,1-.186-4.011v-2.812h2V371.5H168.52l-2.056-3.711a35.773,35.773,0,0,1-1.67-3.4l-.042.014c.057,1.27.085,2.626.085,4.2v2.9Z" transform="translate(-162.839 -361.878)" fill="#fff"/>
              </g>
            </g>
          </g>
          <g id="Grupo_5691" data-name="Grupo 5691" transform="translate(12.618 2.998)">
            <g id="Grupo_5690" data-name="Grupo 5690">
              <g id="Grupo_5689" data-name="Grupo 5689">
                <path id="Trazado_12562" data-name="Trazado 12562" d="M187.534,370.671c.071.9.956,1.328,1.97,1.328a6.159,6.159,0,0,0,1.927-.286l.286,1.47a6.89,6.89,0,0,1-2.527.428c-2.37,0-3.726-1.37-3.726-3.554a3.5,3.5,0,0,1,3.526-3.726c2.255,0,3.112,1.756,3.112,3.483a5.161,5.161,0,0,1-.071.857Zm2.555-1.485a1.26,1.26,0,0,0-1.227-1.413,1.425,1.425,0,0,0-1.342,1.413Z" transform="translate(-185.464 -366.332)" fill="#fff"/>
              </g>
            </g>
          </g>
          <g id="Grupo_5694" data-name="Grupo 5694" transform="translate(23.21 1.156)">
            <g id="Grupo_5693" data-name="Grupo 5693">
              <g id="Grupo_5692" data-name="Grupo 5692">
                <path id="Trazado_12563" data-name="Trazado 12563" d="M207.511,363.03v2h1.556v1.6h-1.556v2.527c0,.842.2,1.227.857,1.227a3.492,3.492,0,0,0,.642-.057l.015,1.642a4.254,4.254,0,0,1-1.413.186,2.258,2.258,0,0,1-1.627-.6,2.891,2.891,0,0,1-.6-2.07v-2.855h-.928v-1.6h.928v-1.513Z" transform="translate(-204.456 -363.03)" fill="#fff"/>
              </g>
            </g>
          </g>
          <g id="Grupo_5697" data-name="Grupo 5697" transform="translate(31.717 3.154)">
            <g id="Grupo_5696" data-name="Grupo 5696">
              <g id="Grupo_5695" data-name="Grupo 5695">
                <path id="Trazado_12564" data-name="Trazado 12564" d="M221.922,366.613l.557,2.855c.143.728.285,1.5.4,2.3h.028c.143-.8.343-1.6.514-2.284l.742-2.869h1.713l.7,2.784c.185.785.371,1.57.514,2.37h.029c.1-.8.242-1.584.4-2.384l.6-2.77h2.127l-2.141,6.981h-2.042l-.656-2.456c-.171-.685-.3-1.313-.443-2.169h-.028a16.276,16.276,0,0,1-.457,2.169l-.7,2.456h-2.042l-2.027-6.981Z" transform="translate(-219.71 -366.613)" fill="#fff"/>
              </g>
            </g>
          </g>
          <g id="Grupo_5700" data-name="Grupo 5700" transform="translate(45.934 2.998)">
            <g id="Grupo_5699" data-name="Grupo 5699">
              <g id="Grupo_5698" data-name="Grupo 5698">
                <path id="Trazado_12565" data-name="Trazado 12565" d="M252.5,369.9a3.5,3.5,0,0,1-3.683,3.725,3.419,3.419,0,0,1-3.611-3.6,3.484,3.484,0,0,1,3.725-3.7A3.394,3.394,0,0,1,252.5,369.9Zm-5.053.071c0,1.2.5,2.1,1.428,2.1.842,0,1.385-.843,1.385-2.1,0-1.042-.4-2.1-1.385-2.1C247.828,367.873,247.443,368.944,247.443,369.972Z" transform="translate(-245.202 -366.332)" fill="#fff"/>
              </g>
            </g>
          </g>
          <g id="Grupo_5703" data-name="Grupo 5703" transform="translate(57.796 2.998)">
            <g id="Grupo_5702" data-name="Grupo 5702">
              <g id="Grupo_5701" data-name="Grupo 5701">
                <path id="Trazado_12566" data-name="Trazado 12566" d="M266.528,368.787c0-1.028-.029-1.7-.057-2.3h1.871l.071,1.285h.057a2.05,2.05,0,0,1,1.884-1.442,2.241,2.241,0,0,1,.457.028V368.4a3.117,3.117,0,0,0-.585-.057,1.4,1.4,0,0,0-1.485,1.1,2.566,2.566,0,0,0-.043.485v3.54h-2.169Z" transform="translate(-266.471 -366.332)" fill="#fff"/>
              </g>
            </g>
          </g>
          <g id="Grupo_5706" data-name="Grupo 5706" transform="translate(66.518)">
            <g id="Grupo_5705" data-name="Grupo 5705">
              <g id="Grupo_5704" data-name="Grupo 5704">
                <path id="Trazado_12567" data-name="Trazado 12567" d="M284.279,367.052h.029c.157-.286.328-.571.5-.842l1.413-2.1h2.613l-2.5,2.827,2.855,4.154h-2.669l-1.685-2.869-.557.685v2.184H282.11V360.957h2.169Z" transform="translate(-282.11 -360.957)" fill="#fff"/>
              </g>
            </g>
          </g>
          <g id="Grupo_5709" data-name="Grupo 5709" transform="translate(77.137 2.998)">
            <g id="Grupo_5708" data-name="Grupo 5708">
              <g id="Grupo_5707" data-name="Grupo 5707">
                <path id="Trazado_12568" data-name="Trazado 12568" d="M301.537,371.571a4.24,4.24,0,0,0,1.87.528c.656,0,.928-.229.928-.586s-.215-.528-1.028-.8c-1.442-.485-2-1.27-1.984-2.1,0-1.3,1.113-2.284,2.84-2.284a4.679,4.679,0,0,1,1.97.4l-.385,1.5a3.427,3.427,0,0,0-1.513-.4c-.528,0-.828.214-.828.57,0,.328.271.5,1.128.8,1.327.457,1.884,1.128,1.9,2.156,0,1.3-1.028,2.255-3.026,2.255a4.944,4.944,0,0,1-2.256-.485Z" transform="translate(-301.151 -366.332)" fill="#fff"/>
              </g>
            </g>
          </g>
        </g>
      </g>
      <g id="Grupo_5713" data-name="Grupo 5713" transform="translate(0 2.08)">
        <g id="Grupo_5712" data-name="Grupo 5712">
          <path id="Trazado_12569" data-name="Trazado 12569" d="M86.252,350.413a15.987,15.987,0,1,0-24.671,10.978l.03.028.026.008a15.974,15.974,0,0,0,24.614-11.013h0Zm-1.774,4.559a16.867,16.867,0,0,0,.064-1.922,14.717,14.717,0,0,0,1.316-1.756,15.624,15.624,0,0,1-1.128,3.4C84.647,354.788,84.564,354.881,84.478,354.973Zm-2.865,2.5q.02-.824-.038-1.681a19.37,19.37,0,0,0,2.738-2.475,16.491,16.491,0,0,1-.089,1.939A19.841,19.841,0,0,1,81.613,357.47Zm-1,2.63a25.048,25.048,0,0,1-3.172,1.64c-.06-.509-.126-1.019-.2-1.533a24.626,24.626,0,0,0,4.138-2.285,15.7,15.7,0,0,1-.17,1.647Q80.912,359.842,80.61,360.1Zm-20.571-.672a12.936,12.936,0,0,0,2.5.866,16.771,16.771,0,0,0,1.289,1.539,14.656,14.656,0,0,1-1.867-.475c-.084-.054-.17-.107-.253-.162A15.1,15.1,0,0,1,60.039,359.428Zm-3.512-3.961a8.408,8.408,0,0,0,1.427,1.159,16.231,16.231,0,0,0,1.26,2.106,8.958,8.958,0,0,1-.932-.638A15.8,15.8,0,0,1,56.526,355.467Zm-.968-2.216a8.7,8.7,0,0,0,1.47,1.13c.16.479.337.953.539,1.419.062.144.132.283.2.424a7.537,7.537,0,0,1-1.661-1.617Q55.8,353.945,55.559,353.251Zm-.683-2.718a9.217,9.217,0,0,0,1.468,1,17.429,17.429,0,0,0,.573,2.5,8.028,8.028,0,0,1-1.528-1.285A15.684,15.684,0,0,1,54.876,350.533Zm-.179-2.871a15.694,15.694,0,0,1,.292-2.644,14.131,14.131,0,0,0,1.408.759,18.246,18.246,0,0,0-.26,2.731A9.632,9.632,0,0,1,54.7,347.662Zm4.314-10.08a1.139,1.139,0,0,0,.5.581,18.4,18.4,0,0,0-1.268,2.094,2.294,2.294,0,0,1-.936-.856,15.909,15.909,0,0,1,1.663-2.094A.837.837,0,0,0,59.011,337.581Zm2.224-1.81c-.055-.158.013-.377.234-.625-.019.008.731-.48,1.127-.708a.294.294,0,0,0,.009.151.344.344,0,0,0,.085.117,17.864,17.864,0,0,0-1.32,1.227A.355.355,0,0,1,61.235,335.772ZM84.2,351.4c.064.533.095,1.06.11,1.582a18.841,18.841,0,0,1-2.75,2.533c-.051-.612-.123-1.231-.236-1.864-.02-.109-.045-.218-.066-.327a18.334,18.334,0,0,0,2.82-2.765C84.122,350.833,84.163,351.113,84.2,351.4Zm-14.65,12.347a15.016,15.016,0,0,1-1.394-1.383,24.236,24.236,0,0,0,4.636-.659c.259.46.525.909.794,1.355A24.629,24.629,0,0,1,69.548,363.742Zm-11.763-8.036c-.163-.377-.308-.76-.443-1.146a12.173,12.173,0,0,0,2.714,1.108,19.425,19.425,0,0,0,.907,2.069,11.255,11.255,0,0,1-2.823-1.274C58.017,356.215,57.9,355.964,57.784,355.707Zm2.554.038a17.561,17.561,0,0,0,3.975.527,23.367,23.367,0,0,0,.936,2.142,17.007,17.007,0,0,1-3.979-.587A19.093,19.093,0,0,1,60.338,355.745Zm2.573-20.9a1.334,1.334,0,0,0,.24.055c-.3.4-.589.818-.864,1.246a2.543,2.543,0,0,1-.683-.1A17.694,17.694,0,0,1,62.911,334.84Zm.518.076c.034,0,.062.006.1.006.084,0,.175,0,.27-.009a7.089,7.089,0,0,0,.724-.092c-.134.368-.258.744-.379,1.12a10.484,10.484,0,0,1-1.3.189c-.1.007-.187.011-.277.013C62.842,335.721,63.127,335.31,63.429,334.916Zm3.505-.8c.317.195.631.4.944.61q-.447.2-.952.4c-.194-.263-.385-.527-.582-.784C66.545,334.27,66.743,334.194,66.934,334.114Zm1.6-.93c.548.013,1.095.056,1.64.121a4.85,4.85,0,0,1-.516.417q-.647-.217-1.3-.389C68.428,333.283,68.487,333.233,68.538,333.184Zm14.718,14.2c-.156.215-.318.429-.492.642a17.725,17.725,0,0,1-2.3,2.312,26.216,26.216,0,0,0-1.106-2.772,18.107,18.107,0,0,0,2.505-2.488c.089-.11.171-.22.255-.331A20.336,20.336,0,0,1,83.256,347.384Zm-.974-2.844a12.365,12.365,0,0,0,1.41-2.4,17.253,17.253,0,0,1,1.134,2.325,11.244,11.244,0,0,1-1.4,2.677A20.665,20.665,0,0,0,82.282,344.54ZM65.518,358.423a22.89,22.89,0,0,1-.949-2.147c.075,0,.149,0,.224,0a23.677,23.677,0,0,0,5.1-.579q.456,1.108.951,2.181A23.2,23.2,0,0,1,65.518,358.423Zm5.428-.318q.435.931.9,1.834a23.35,23.35,0,0,1-5.1.585,19.79,19.79,0,0,1-1.109-1.866c.1,0,.2.006.3.006A23.6,23.6,0,0,0,70.945,358.1Zm-8.117-13.772a20.606,20.606,0,0,0,3.574-.507c.173.945.378,1.893.6,2.843a19.023,19.023,0,0,1-4.21.345C62.769,346.128,62.779,345.234,62.828,344.332Zm.359-3.315a20.052,20.052,0,0,0,2.714-.5c.125,1.018.275,2.042.459,3.072a20.516,20.516,0,0,1-3.519.506q.068-1.1.207-2.2C63.087,341.6,63.142,341.311,63.188,341.017ZM71.7,351.539a26.555,26.555,0,0,1-2.821.8c-.313-.914-.61-1.839-.881-2.78a26.374,26.374,0,0,0,5.56-1.9l.042.1c.342.862.654,1.726.951,2.592A26.577,26.577,0,0,1,71.7,351.539Zm2.928-.96c.331.972.639,1.944.913,2.916a26.184,26.184,0,0,1-5.511,1.934q-.571-1.4-1.074-2.858a26.437,26.437,0,0,0,5.672-1.991Zm-5.318-11.466c-.5.215-1.016.419-1.548.6-.561.195-1.116.361-1.664.508-.092-.782-.169-1.56-.225-2.332.332-.1.666-.2,1-.319.4-.139.789-.289,1.169-.446Q68.7,338.1,69.313,339.114Zm-1.043-2.077a18.431,18.431,0,0,0,1.685-.819c.641.506,1.264,1.051,1.877,1.614a20.392,20.392,0,0,1-2.3,1.191Q68.919,338.006,68.27,337.036Zm-.427,2.9c.547-.19,1.076-.4,1.591-.621q.794,1.321,1.528,2.712c-.67.307-1.372.591-2.1.845-.763.265-1.521.485-2.266.664-.185-1.032-.334-2.057-.459-3.077C66.695,340.314,67.267,340.141,67.843,339.94Zm1.092,3.158c.744-.259,1.457-.549,2.139-.862.444.85.866,1.724,1.273,2.61-.567.283-1.145.549-1.744.782a20.816,20.816,0,0,1-3.367.993c-.224-.954-.429-1.906-.6-2.854A23.975,23.975,0,0,0,68.935,343.1Zm1.753,2.755c.6-.236,1.187-.5,1.758-.788.356.782.7,1.574,1.024,2.381a26.036,26.036,0,0,1-5.539,1.889c-.235-.827-.444-1.652-.642-2.478A21.019,21.019,0,0,0,70.687,345.854Zm3.134,1.823c-.015-.039-.032-.076-.048-.115a23.883,23.883,0,0,0,4.031-2.437q.7,1.173,1.264,2.377a23,23,0,0,1-4.3,2.751C74.472,349.393,74.161,348.533,73.822,347.677Zm-.138-.333q-.49-1.214-1.029-2.389a20.111,20.111,0,0,0,3.524-2.283c.539.737,1.044,1.489,1.506,2.254A23.715,23.715,0,0,1,73.683,347.344Zm-1.128-2.608c-.407-.883-.827-1.753-1.269-2.6a20.778,20.778,0,0,0,3.052-1.754q.9,1.024,1.7,2.1A19.891,19.891,0,0,1,72.555,344.736Zm-1.38-2.808q-.73-1.385-1.521-2.7A20.2,20.2,0,0,0,72.01,338c.312.291.626.576.93.881.43.433.842.877,1.244,1.327A20.605,20.605,0,0,1,71.175,341.928Zm1.931-3.214c-.289-.291-.591-.564-.888-.843a14.105,14.105,0,0,0,1.906-1.416c.079-.071.148-.141.222-.212A22.363,22.363,0,0,1,76.71,338a13.9,13.9,0,0,1-2.332,2.073C73.968,339.612,73.547,339.157,73.106,338.714Zm.86-2.434a13.915,13.915,0,0,1-1.924,1.425c-.61-.562-1.229-1.106-1.867-1.612a12.269,12.269,0,0,0,1.386-.915c.126-.1.24-.194.351-.291a21.6,21.6,0,0,1,2.232,1.222C74.085,336.166,74.03,336.222,73.966,336.28Zm-2.549-1.289a12.181,12.181,0,0,1-1.444.947q-.8-.621-1.616-1.182a11.047,11.047,0,0,0,1.345-.767,20.974,20.974,0,0,1,1.98.783C71.6,334.845,71.512,334.918,71.417,334.991Zm-1.671,1.07c-.5.273-1.04.535-1.612.777q-.522-.774-1.064-1.519c.356-.139.707-.288,1.041-.445Q68.941,335.438,69.747,336.061Zm-1.837.868c-.36.148-.729.29-1.109.422-.315.109-.627.207-.939.3q-.065-.947-.094-1.882c.215-.066.431-.131.649-.206.143-.05.284-.1.427-.154Q67.386,336.154,67.91,336.929Zm-2.28.79a18.625,18.625,0,0,1-1.883.436c.168-.681.362-1.35.571-2.008.393-.082.8-.181,1.216-.3Q65.564,336.776,65.63,337.72Zm.014.241c.057.77.136,1.547.228,2.327a20.236,20.236,0,0,1-2.648.5c.131-.8.283-1.6.469-2.38A18.807,18.807,0,0,0,65.644,337.961Zm-2.026,9.3a19.5,19.5,0,0,0,3.44-.357c.2.827.408,1.654.643,2.482a23.25,23.25,0,0,1-4.694.514q-.161-1.309-.207-2.66C63.072,347.249,63.343,347.265,63.617,347.261Zm4.151,2.351c.272.944.57,1.871.883,2.787a23.127,23.127,0,0,1-5.108.544c-.214-.912-.38-1.849-.505-2.8A23.542,23.542,0,0,0,67.768,349.613ZM63.7,353.192a23.572,23.572,0,0,0,5.032-.566q.5,1.451,1.069,2.851a23.241,23.241,0,0,1-5.322.56,25.557,25.557,0,0,1-.87-2.847Zm6.428,2.454a26.033,26.033,0,0,0,5.482-1.92c.221.794.421,1.587.6,2.378-.733.333-1.493.641-2.282.915a26.365,26.365,0,0,1-2.848.813Q70.582,356.757,70.124,355.646Zm5.7-2.019a23.235,23.235,0,0,0,4.53-2.89,23.206,23.206,0,0,1,.641,2.483A23.623,23.623,0,0,1,76.428,356Q76.153,354.817,75.823,353.627Zm-.062-.23c-.276-.973-.584-1.946-.916-2.918a23.291,23.291,0,0,0,4.328-2.758,26.1,26.1,0,0,1,1.1,2.777A22.964,22.964,0,0,1,75.761,353.4Zm5.922-8.468a17.833,17.833,0,0,1-2.427,2.419q-.569-1.2-1.26-2.363a18.874,18.874,0,0,0,2.731-2.561A21.487,21.487,0,0,1,82,344.516C81.9,344.654,81.794,344.792,81.683,344.929Zm-3.809-.144q-.7-1.15-1.512-2.26a18.252,18.252,0,0,0,2.461-2.5,22.37,22.37,0,0,1,1.771,2.2A18.573,18.573,0,0,1,77.875,344.785Zm-1.654-2.455q-.793-1.067-1.689-2.086a14.2,14.2,0,0,0,2.35-2.094c.216.187.434.369.646.566.393.366.767.747,1.129,1.135A18.023,18.023,0,0,1,76.221,342.33Zm1.468-3.787c-.212-.2-.432-.381-.649-.569a8.088,8.088,0,0,0,1.117-1.685,18.625,18.625,0,0,1,1.944,1.5,16.52,16.52,0,0,1-1.3,1.873C78.446,339.281,78.077,338.905,77.689,338.543Zm-.82-.719a22.727,22.727,0,0,0-2.347-1.749,6.732,6.732,0,0,0,1.012-1.262,18.54,18.54,0,0,1,2.4,1.325l.024.016A7.723,7.723,0,0,1,76.87,337.824Zm-2.548-1.884a21.908,21.908,0,0,0-2.221-1.225,4.233,4.233,0,0,0,.748-.882,18.054,18.054,0,0,1,2.467.887A6.635,6.635,0,0,1,74.322,335.941ZM71.878,334.6c-.639-.3-1.287-.552-1.938-.781a3.988,3.988,0,0,0,.544-.48,17.637,17.637,0,0,1,2.127.427A4.281,4.281,0,0,1,71.878,334.6Zm-3.766-1.091q.654.166,1.3.379a11.266,11.266,0,0,1-1.288.717c-.308-.207-.617-.413-.93-.607A6.9,6.9,0,0,0,68.112,333.511Zm-2,.91c.2.258.392.525.587.79-.118.044-.235.087-.356.129-.195.067-.385.124-.577.183-.009-.331-.02-.663-.022-.991.093-.027.183-.051.277-.081Zm-.6.181c0,.33.013.664.023,1-.384.114-.76.212-1.122.292.123-.375.248-.75.383-1.117C65.021,334.726,65.26,334.669,65.5,334.6Zm-3.08,1.779c.148,0,.294-.006.434-.016a10.523,10.523,0,0,0,1.2-.167c-.205.656-.395,1.323-.56,2a12.187,12.187,0,0,1-1.779.162h-.09c-.113,0-.217-.005-.323-.01a21.112,21.112,0,0,1,1.111-1.973Zm-.8,2.219h.093a12.427,12.427,0,0,0,1.723-.152c-.182.774-.332,1.562-.46,2.36a12.841,12.841,0,0,1-2.713.019,21.786,21.786,0,0,1,.925-2.241C61.333,338.594,61.474,338.6,61.625,338.6Zm-.1,2.516c.452,0,.926-.024,1.419-.071-.042.275-.094.546-.129.823q-.145,1.127-.212,2.245a13.43,13.43,0,0,1-3.159-.23,22.529,22.529,0,0,1,.756-2.849A10.855,10.855,0,0,0,61.525,341.115Zm-2.313,2.723a7.184,7.184,0,0,1-1.915-.709c.04-.119.075-.24.117-.359a18.421,18.421,0,0,1,.948-2.216,6.013,6.013,0,0,0,1.6.453A22.908,22.908,0,0,0,59.212,343.838Zm-.042.216c-.03.157-.066.311-.093.47q-.158.949-.236,1.9c-.193-.053-.385-.107-.576-.167a14.547,14.547,0,0,1-1.6-.617,18.733,18.733,0,0,1,.563-2.288A7.6,7.6,0,0,0,59.169,344.054Zm.14.509c.026-.157.062-.308.091-.463a13.123,13.123,0,0,0,2.608.253c.191,0,.388-.007.583-.014q-.073,1.344-.035,2.662a17,17,0,0,1-3.484-.518Q59.15,345.526,59.309,344.563Zm3.254,2.671q.047,1.348.2,2.661a18.063,18.063,0,0,1-3.733-.39,22.289,22.289,0,0,1,.024-2.789A17.2,17.2,0,0,0,62.563,347.235Zm.238,2.906c.123.952.287,1.887.5,2.8a17.912,17.912,0,0,1-3.525-.394c-.128-.028-.249-.062-.374-.094a21.336,21.336,0,0,1-.35-2.7A18.289,18.289,0,0,0,62.8,350.141Zm-3.077,2.635a18.142,18.142,0,0,0,3.637.408,26.058,26.058,0,0,0,.859,2.846,17.242,17.242,0,0,1-3.984-.547,20.149,20.149,0,0,1-.785-2.775C59.542,352.73,59.63,352.755,59.724,352.775Zm5.643,5.876c.011.02.02.041.03.061a20.175,20.175,0,0,0,1.06,1.805,18.019,18.019,0,0,1-3.646-.4l-.133-.033c-.327-.448-.64-.916-.932-1.408-.11-.185-.212-.374-.316-.562A17.555,17.555,0,0,0,65.366,358.651Zm1.256,2.114q.5.727,1.035,1.376a19.043,19.043,0,0,1-3.423-.233,16.26,16.26,0,0,1-1.326-1.528A18.34,18.34,0,0,0,66.622,360.766Zm.284,0a23.738,23.738,0,0,0,5.046-.607c.234.45.476.891.72,1.33a23.941,23.941,0,0,1-4.717.642Q67.408,361.488,66.906,360.764Zm6.122.88c.767-.191,1.539-.416,2.312-.685.571-.2,1.126-.419,1.672-.651.076.514.142,1.026.2,1.535q-.74.31-1.516.58-.935.325-1.873.572C73.553,362.551,73.287,362.1,73.028,361.643Zm2.235-.907c-.787.273-1.573.5-2.352.693-.245-.438-.487-.879-.722-1.329a26.893,26.893,0,0,0,2.627-.762q.985-.342,1.913-.748c.09.495.17.987.245,1.478C76.415,360.307,75.847,360.533,75.263,360.736Zm-.524-1.62a26.57,26.57,0,0,1-2.661.763q-.463-.9-.9-1.831a26.4,26.4,0,0,0,2.826-.807c.78-.271,1.533-.574,2.258-.9q.229,1.011.419,2.015Q75.741,358.766,74.739,359.116Zm1.743-2.881a23.874,23.874,0,0,0,4.565-2.759c.013.07.03.14.042.21.12.674.2,1.335.251,1.984a24,24,0,0,1-4.437,2.581Q76.714,357.247,76.482,356.235ZM81.2,353.06a23.633,23.633,0,0,0-.655-2.483,18.042,18.042,0,0,0,2.4-2.4c.141-.173.27-.347.4-.521a19.255,19.255,0,0,1,.67,2.6A17.823,17.823,0,0,1,81.2,353.06Zm2.316-5.637a11.711,11.711,0,0,0,1.432-2.63,17.085,17.085,0,0,1,.576,1.83c.072.287.126.574.182.861a12.226,12.226,0,0,1-1.5,2.529A19.59,19.59,0,0,0,83.518,347.422Zm2.237-.857a17.284,17.284,0,0,0-.685-2.121,8.707,8.707,0,0,0,.327-1.272,15.67,15.67,0,0,1,.7,3.231c-.067.225-.142.451-.228.675C85.831,346.908,85.8,346.737,85.755,346.566Zm-.82-2.457A17.434,17.434,0,0,0,83.8,341.87a9.155,9.155,0,0,0,.433-1.362,15.633,15.633,0,0,1,1,2.186A8.028,8.028,0,0,1,84.936,344.109Zm-1.287-2.488a17.836,17.836,0,0,0-1.176-1.675,10.9,10.9,0,0,0,.584-1.268,15.82,15.82,0,0,1,1.006,1.53A8.761,8.761,0,0,1,83.648,341.62Zm-.106.277a11.964,11.964,0,0,1-1.384,2.415,21.845,21.845,0,0,0-1.269-2.071,14.039,14.039,0,0,0,1.456-2.076A17.652,17.652,0,0,1,83.542,341.9Zm-2.789.151a22.754,22.754,0,0,0-1.784-2.208,16.8,16.8,0,0,0,1.31-1.886,18.06,18.06,0,0,1,1.912,2.022A13.642,13.642,0,0,1,80.754,342.047Zm-2.5-5.977a4.6,4.6,0,0,0,.378-1.424,15.873,15.873,0,0,1,2.226,1.65c-.19.431-.4.859-.639,1.284A18.865,18.865,0,0,0,78.256,336.07Zm-.2-.135a18.9,18.9,0,0,0-2.41-1.33,3.019,3.019,0,0,0,.377-1.239,15.69,15.69,0,0,1,2.375,1.142A4.23,4.23,0,0,1,78.058,335.936Zm-2.625-1.422a18.247,18.247,0,0,0-2.475-.9,1.216,1.216,0,0,0,.1-.918.756.756,0,0,0-.076-.152,15.618,15.618,0,0,1,2.818.732A2.725,2.725,0,0,1,75.433,334.514Zm-2.6-1.737a1.019,1.019,0,0,1-.1.777,17.96,17.96,0,0,0-2.068-.429.767.767,0,0,0,.171-.689h0a.452.452,0,0,0-.047-.087,15.687,15.687,0,0,1,1.858.149A.781.781,0,0,1,72.832,332.777Zm-2.222-.264c.051.148-.03.347-.224.577-.55-.071-1.1-.12-1.655-.139a.388.388,0,0,0,.054-.34.365.365,0,0,0-.148-.165,15.8,15.8,0,0,1,1.8-.106A.37.37,0,0,1,70.609,332.513Zm-2.048.169c.023.062-.015.151-.1.254h0a.11.11,0,0,1-.017.025,4.574,4.574,0,0,1-1.466.9l0,0a.272.272,0,0,1-.093.037l-.013.01c-.281.118-.585.235-.93.346a9.41,9.41,0,0,1-2.158.449c-.643.037-.912-.071-.953-.178-.022-.059.019-.16.139-.292a15.635,15.635,0,0,1,5.138-1.713C68.362,332.536,68.527,332.594,68.562,332.682Zm-7.141,3.545a2.275,2.275,0,0,0,.721.144,21.223,21.223,0,0,0-1.093,1.968,3.764,3.764,0,0,1-1.177-.257A17.745,17.745,0,0,1,61.421,336.227Zm-.479,2.338a21.971,21.971,0,0,0-.911,2.225,5.833,5.833,0,0,1-1.576-.428,18.007,18.007,0,0,1,1.271-2.089A3.75,3.75,0,0,0,60.942,338.566Zm-2.8,1.892a18.742,18.742,0,0,0-.954,2.234c-.037.105-.068.211-.1.317a3.82,3.82,0,0,1-1.15-1.07,15.741,15.741,0,0,1,1.235-2.326A2.585,2.585,0,0,0,58.145,340.457Zm-1.127,2.766a18.875,18.875,0,0,0-.578,2.313,13.793,13.793,0,0,1-1.4-.765,15.562,15.562,0,0,1,.795-2.579A4.167,4.167,0,0,0,57.018,343.223Zm-.4,2.655a14.507,14.507,0,0,0,1.576.6c.207.066.422.114.632.172a22.55,22.55,0,0,0-.032,2.791,12.972,12.972,0,0,1-2.422-.819A18.013,18.013,0,0,1,56.618,345.878Zm2.192,3.815a21.651,21.651,0,0,0,.338,2.7,12.105,12.105,0,0,1-2.588-1.008,17.466,17.466,0,0,1-.185-2.493A13.343,13.343,0,0,0,58.81,349.693Zm.388,2.951a20.476,20.476,0,0,0,.76,2.756,11.6,11.6,0,0,1-2.731-1.166,17.155,17.155,0,0,1-.626-2.567A12.525,12.525,0,0,0,59.2,352.644Zm-.844,4.233a12.021,12.021,0,0,0,2.754,1.149q.207.392.434.775c.246.415.506.813.778,1.2a12.166,12.166,0,0,1-2.616-.99A15.943,15.943,0,0,1,58.354,356.877Zm5.73,5.228c.243.246.5.475.75.7a15.741,15.741,0,0,1-2.132-1C63.148,361.921,63.608,362.023,64.084,362.105Zm.414.078a19.079,19.079,0,0,0,2.773.2c.19,0,.383-.008.576-.013a15.581,15.581,0,0,0,1.372,1.4l-.167.011a15.616,15.616,0,0,1-3.6-.748C65.127,362.759,64.806,362.482,64.5,362.183Zm9.207,1.075c.043.069.083.141.126.21a15.758,15.758,0,0,1-3.03.363A25.382,25.382,0,0,0,73.7,363.257Zm.241-.059c.61-.163,1.219-.342,1.828-.554.5-.175.989-.365,1.468-.566.008.067.017.134.025.2a15.606,15.606,0,0,1-3.193,1.131C74.03,363.341,73.989,363.269,73.946,363.2Zm3.522-1.219q.92-.394,1.782-.843a15.681,15.681,0,0,1-1.759,1.028C77.484,362.1,77.475,362.042,77.467,361.98Zm-.27-2.013c-.076-.491-.156-.984-.247-1.479a24.293,24.293,0,0,0,4.411-2.544c.036.572.046,1.134.028,1.683A24.288,24.288,0,0,1,77.2,359.967Zm8.778-9.313a13.8,13.8,0,0,1-1.44,2.051c-.018-.442-.049-.888-.1-1.338-.043-.354-.1-.707-.162-1.059a12.932,12.932,0,0,0,1.515-2.443A15.909,15.909,0,0,1,86,350.512C85.993,350.56,85.982,350.606,85.975,350.654Zm-.017-3.172c.068-.162.128-.325.187-.487.025.362.042.726.042,1.094q0,.425-.023.844C86.115,348.451,86.05,347.967,85.957,347.483Zm-3.063-9.014a10.455,10.455,0,0,1-.576,1.288,18.345,18.345,0,0,0-1.916-2.011c.241-.425.452-.854.644-1.285A15.875,15.875,0,0,1,82.894,338.469Zm-21.867-3a.569.569,0,0,0-.013.381.561.561,0,0,0,.189.257,18.066,18.066,0,0,0-1.547,1.867.929.929,0,0,1-.421-.468.846.846,0,0,1,.007-.479A15.818,15.818,0,0,1,61.026,335.467ZM54.69,347.941a10.08,10.08,0,0,0,1.448.829,17.787,17.787,0,0,0,.162,2.47,8.713,8.713,0,0,1-1.471-1.056,15.822,15.822,0,0,1-.143-2.094C54.686,348.04,54.689,347.991,54.69,347.941Zm4.231,10.878c.2.128.41.254.63.37.267.351.543.693.837,1.018A15.957,15.957,0,0,1,58.921,358.819Zm22.55.5c.07-.5.114-1.022.136-1.55a20.314,20.314,0,0,0,2.57-2.149c-.009.07-.018.141-.028.21A15.847,15.847,0,0,1,81.47,359.315Z" transform="translate(-54.45 -332.103)" fill="#fff"/>
        </g>
      </g>
      <g id="Grupo_5718" data-name="Grupo 5718" transform="translate(11.31 6.855)">
        <g id="Grupo_5717" data-name="Grupo 5717">
          <g id="Grupo_5716" data-name="Grupo 5716">
            <g id="Grupo_5715" data-name="Grupo 5715">
              <g id="Grupo_5714" data-name="Grupo 5714">
                <path id="Trazado_12570" data-name="Trazado 12570" d="M81.183,342.192a1.473,1.473,0,0,1,.455-1.06,1.438,1.438,0,0,1,1.062-.467,1.331,1.331,0,0,1,.978.408,1.281,1.281,0,0,1,.4.931,1.8,1.8,0,0,1-.5,1.238,1.5,1.5,0,0,1-1.112.324,1.236,1.236,0,0,1-.912-.372A1.357,1.357,0,0,1,81.183,342.192Zm.033,5.042a2.39,2.39,0,0,0-.649.064,9.023,9.023,0,0,0-1.436.892,12.031,12.031,0,0,0-1.768,1.7l-1.205.27a13.16,13.16,0,0,1,3.541-3.407,6.425,6.425,0,0,1,3.07-1.234.978.978,0,0,1,.721.239.835.835,0,0,1,.24.616,9.316,9.316,0,0,1-1.171,3.408c-.1.2-.328.7-.692,1.506q-1.258,2.74-2.683,5.186-.46.8-1.006,1.882c-.2.39-.37.718-.525.984A3.864,3.864,0,0,0,77,360.989a.382.382,0,0,0,.114.269.389.389,0,0,0,.284.117,1.741,1.741,0,0,0,.7-.25,10.05,10.05,0,0,0,1.868-1.385,11.366,11.366,0,0,0,1.912-2.221H82.8a17.389,17.389,0,0,1-1.854,2.577,10.072,10.072,0,0,1-2.788,2.328,4.345,4.345,0,0,1-2.083.664,1.538,1.538,0,0,1-1.021-.282.932.932,0,0,1-.325-.742q0-1.61,2.366-6.067l3.369-6.359a13.672,13.672,0,0,0,.731-1.548,1.8,1.8,0,0,0,.126-.48A1.32,1.32,0,0,0,81.216,347.234Z" transform="translate(-74.729 -340.665)" fill="#fff"/>
              </g>
            </g>
          </g>
        </g>
      </g>
    </g>
    <g id="Grupo_5720" data-name="Grupo 5720" transform="translate(201.23 327.874)">
      <path id="Trazado_12571" data-name="Trazado 12571" d="M317.917,366.874a.279.279,0,0,1-.279-.279V328.153a.279.279,0,1,1,.558,0V366.6A.279.279,0,0,1,317.917,366.874Z" transform="translate(-317.638 -327.874)" fill="#96999c"/>
    </g>
    <g id="Grupo_5725" data-name="Grupo 5725" transform="translate(205.596 335.565)">
      <g id="Grupo_5723" data-name="Grupo 5723">
        <g id="Grupo_5721" data-name="Grupo 5721" transform="translate(10.193)">
          <path id="Trazado_12572" data-name="Trazado 12572" d="M352.967,355.716q.793-.16,1.592-.3l.034-.006v-1.13h-5.766v-.047l1.412-1.176c2.212-1.977,4.072-4.024,4.072-6.589,0-2.777-1.906-4.8-5.366-4.8a8.47,8.47,0,0,0-5.013,1.577l1.012,2.565a5.538,5.538,0,0,1,3.271-1.271c1.765,0,2.518.988,2.518,2.236-.047,1.788-1.671,3.506-5.013,6.494l-1.976,1.789v2.165h3.077c1.6-.455,3.281-.886,5-1.26C352.2,355.876,352.582,355.793,352.967,355.716Z" transform="translate(-343.744 -341.665)" fill="#fff"/>
        </g>
        <g id="Grupo_5722" data-name="Grupo 5722" transform="translate(23.017)">
          <path id="Trazado_12573" data-name="Trazado 12573" d="M371.937,354.643c-1.019-.447-1.619-2.094-1.6-5.047-.024-3.554.871-5.224,2.188-5.224,1.436,0,2.164,1.789,2.164,5.177,0,2.925-.533,4.617-1.525,5.085.164,0,.332-.007.5,0a27.561,27.561,0,0,1,3.386.274,10.666,10.666,0,0,0,1.221-5.4c0-4.189-1.6-7.836-5.695-7.836-3.953,0-5.836,3.506-5.836,7.931a10.657,10.657,0,0,0,1.255,5.342c.557-.066,1.112-.127,1.664-.173C370.424,354.7,371.184,354.663,371.937,354.643Z" transform="translate(-366.738 -341.665)" fill="#fff"/>
        </g>
        <path id="Trazado_12574" data-name="Trazado 12574" d="M359.807,366.17c-.164-.032-.331-.059-.5-.086s-.344-.051-.516-.076a27.567,27.567,0,0,0-3.386-.274c-.163,0-.331.005-.5,0-.407,0-.816,0-1.229.009-.753.021-1.513.058-2.28.122-.552.046-1.108.108-1.664.173-.766.09-1.534.192-2.3.316q-.465.074-.929.156l-.033.006q-.8.141-1.592.3c-.385.078-.767.16-1.149.244-1.717.375-3.394.806-5,1.26-1.351.383-2.65.782-3.868,1.18l-.3.1c-5.348,1.767-9.1,3.471-9.1,3.471,30.7,0,37.092,6,37.092,6V366.915A18.233,18.233,0,0,0,359.807,366.17Zm-5.511-.294h0a1.4,1.4,0,0,0,.321-.036A1.4,1.4,0,0,1,354.3,365.875Z" transform="translate(-325.467 -352.31)" fill="#dc931a"/>
      </g>
      <g id="Grupo_5724" data-name="Grupo 5724" transform="translate(18.639 15.676)">
        <path id="Trazado_12575" data-name="Trazado 12575" d="M360.015,374.2l-.263.947h-.864l1.127-3.688h1.094l1.144,3.688h-.9l-.285-.947Zm.935-.623-.229-.782c-.066-.219-.132-.492-.186-.712h-.011c-.055.219-.11.5-.17.712l-.219.782Z" transform="translate(-358.888 -370.52)" fill="#fff"/>
        <path id="Trazado_12576" data-name="Trazado 12576" d="M366.593,374.4v-3.688h.974l.766,1.351a10.618,10.618,0,0,1,.6,1.264h.017a13.708,13.708,0,0,1-.071-1.538v-1.078h.766V374.4h-.876l-.788-1.423a13.692,13.692,0,0,1-.64-1.3l-.017.005c.022.487.033,1.007.033,1.609V374.4Zm.772-3.912c-.011-.46.158-.695.427-.695a.629.629,0,0,1,.345.109.581.581,0,0,0,.24.1c.093,0,.132-.055.148-.235h.378c.011.492-.148.684-.433.684a.694.694,0,0,1-.355-.1.587.587,0,0,0-.235-.1c-.065,0-.115.082-.132.235Z" transform="translate(-362.296 -369.773)" fill="#fff"/>
        <path id="Trazado_12577" data-name="Trazado 12577" d="M377.393,373.219a1.758,1.758,0,0,1-1.811,1.943,1.72,1.72,0,0,1-1.734-1.877,1.785,1.785,0,0,1,1.795-1.931A1.719,1.719,0,0,1,377.393,373.219Zm-2.665.049c0,.722.34,1.231.9,1.231s.886-.537.886-1.253c0-.662-.317-1.231-.891-1.231S374.729,372.551,374.729,373.268Z" transform="translate(-365.505 -370.472)" fill="#fff"/>
        <path id="Trazado_12578" data-name="Trazado 12578" d="M381.89,374.242a2.126,2.126,0,0,0,.925.23c.384,0,.586-.158.586-.4s-.175-.361-.618-.52c-.612-.213-1.012-.553-1.012-1.089,0-.63.525-1.111,1.4-1.111a2.252,2.252,0,0,1,.941.186l-.186.673a1.748,1.748,0,0,0-.771-.176c-.361,0-.536.165-.536.356,0,.235.207.339.683.52.651.241.958.58.958,1.1,0,.618-.476,1.144-1.488,1.144a2.413,2.413,0,0,1-1.045-.224Z" transform="translate(-368.987 -370.472)" fill="#fff"/>
      </g>
    </g>
  </g>
</svg>
